<svg width="121" height="25" viewBox="0 0 121 25" fill="none" xmlns="http://www.w3.org/2000/svg">
<path d="M11.756 3.84607C12.0554 2.92481 13.3587 2.92481 13.6581 3.84607L15.1769 8.51998C15.3108 8.93197 15.6947 9.21091 16.1279 9.21093L21.0424 9.21111C22.0111 9.21115 22.4139 10.4507 21.6302 11.0201L17.6544 13.9089C17.3039 14.1636 17.1573 14.6149 17.2911 15.0269L18.8096 19.7009C19.1089 20.6222 18.0545 21.3883 17.2708 20.8189L13.2948 17.9304C12.9443 17.6758 12.4698 17.6758 12.1193 17.9304L8.14325 20.8189C7.35955 21.3883 6.30513 20.6222 6.60443 19.7009L8.12292 15.0269C8.25677 14.6149 8.11012 14.1636 7.75967 13.9089L3.78386 11.0201C3.0002 10.4507 3.40296 9.21115 4.37164 9.21111L9.28614 9.21093C9.71934 9.21091 10.1033 8.93197 10.2371 8.51998L11.756 3.84607Z" fill="#F59E0B"/>
<path d="M35.756 3.84607C36.0554 2.92481 37.3587 2.92481 37.6581 3.84607L39.1769 8.51998C39.3108 8.93197 39.6947 9.21091 40.1279 9.21093L45.0424 9.21111C46.0111 9.21115 46.4139 10.4507 45.6302 11.0201L41.6544 13.9089C41.3039 14.1636 41.1573 14.6149 41.2911 15.0269L42.8096 19.7009C43.1089 20.6222 42.0545 21.3883 41.2708 20.8189L37.2948 17.9304C36.9443 17.6758 36.4698 17.6758 36.1193 17.9304L32.1433 20.8189C31.3595 21.3883 30.3051 20.6222 30.6044 19.7009L32.1229 15.0269C32.2568 14.6149 32.1101 14.1636 31.7597 13.9089L27.7839 11.0201C27.0002 10.4507 27.403 9.21115 28.3716 9.21111L33.2861 9.21093C33.7193 9.21091 34.1033 8.93197 34.2371 8.51998L35.756 3.84607Z" fill="#F59E0B"/>
<path d="M59.756 3.84607C60.0554 2.92481 61.3587 2.92481 61.6581 3.84607L63.1769 8.51998C63.3108 8.93197 63.6947 9.21091 64.1279 9.21093L69.0424 9.21111C70.0111 9.21115 70.4139 10.4507 69.6302 11.0201L65.6544 13.9089C65.3039 14.1636 65.1573 14.6149 65.2911 15.0269L66.8096 19.7009C67.1089 20.6222 66.0545 21.3883 65.2708 20.8189L61.2948 17.9304C60.9443 17.6758 60.4698 17.6758 60.1193 17.9304L56.1433 20.8189C55.3595 21.3883 54.3051 20.6222 54.6044 19.7009L56.1229 15.0269C56.2568 14.6149 56.1101 14.1636 55.7597 13.9089L51.7839 11.0201C51.0002 10.4507 51.403 9.21115 52.3716 9.21111L57.2861 9.21093C57.7193 9.21091 58.1033 8.93197 58.2371 8.51998L59.756 3.84607Z" fill="#F59E0B"/>
<path d="M83.756 3.84607C84.0554 2.92481 85.3587 2.92481 85.6581 3.84607L87.1769 8.51998C87.3108 8.93197 87.6947 9.21091 88.1279 9.21093L93.0424 9.21111C94.0111 9.21115 94.4139 10.4507 93.6302 11.0201L89.6544 13.9089C89.3039 14.1636 89.1573 14.6149 89.2911 15.0269L90.8096 19.7009C91.1089 20.6222 90.0545 21.3883 89.2708 20.8189L85.2948 17.9304C84.9443 17.6758 84.4698 17.6758 84.1193 17.9304L80.1433 20.8189C79.3595 21.3883 78.3051 20.6222 78.6044 19.7009L80.1229 15.0269C80.2568 14.6149 80.1101 14.1636 79.7597 13.9089L75.7839 11.0201C75.0002 10.4507 75.403 9.21115 76.3716 9.21111L81.2861 9.21093C81.7193 9.21091 82.1033 8.93197 82.2371 8.51998L83.756 3.84607Z" fill="#F59E0B"/>
<path d="M107.756 3.84607C108.055 2.92481 109.359 2.92481 109.658 3.84607L111.177 8.51998C111.311 8.93197 111.695 9.21091 112.128 9.21093L117.042 9.21111C118.011 9.21115 118.414 10.4507 117.63 11.0201L113.654 13.9089C113.304 14.1636 113.157 14.6149 113.291 15.0269L114.81 19.7009C115.109 20.6222 114.055 21.3883 113.271 20.8189L109.295 17.9304C108.944 17.6758 108.47 17.6758 108.119 17.9304L104.143 20.8189C103.36 21.3883 102.305 20.6222 102.604 19.7009L104.123 15.0269C104.257 14.6149 104.11 14.1636 103.76 13.9089L99.7839 11.0201C99.0002 10.4507 99.403 9.21115 100.372 9.21111L105.286 9.21093C105.719 9.21091 106.103 8.93197 106.237 8.51998L107.756 3.84607Z" fill="#F59E0B"/>
</svg>
